<svg width="34.000000" height="34.000000" viewBox="0 0 34 34" fill="none" xmlns="http://www.w3.org/2000/svg" xmlns:xlink="http://www.w3.org/1999/xlink">
	<desc>
			Created with Pixso.
	</desc>
	<defs>
		<clipPath id="clip180_328">
			<rect id="Icon" width="34.000000" height="34.000000" fill="white" fill-opacity="0"/>
		</clipPath>
	</defs>
	<g clip-path="url(#clip180_328)">
		<path id="Vector" d="M21.0471 24.199C21.179 24.6091 21.25 25.0461 21.25 25.5C21.25 27.8472 19.3472 29.75 17 29.75C14.6528 29.75 12.75 27.8472 12.75 25.5C12.75 25.0464 12.821 24.6091 12.9529 24.1992M25.4998 12.8196L25.4998 13.8125C25.4998 17.093 26.7385 20.084 28.7742 22.3435C26.3193 23.2498 23.7312 23.8806 21.0471 24.199C19.72 24.3564 18.3694 24.4375 16.9998 24.4375C15.6304 24.4375 14.2798 24.3564 12.9529 24.1992C10.2686 23.8809 7.68042 23.2498 5.22534 22.3435C7.26074 20.084 8.49976 17.093 8.49976 13.8125L8.5 12.75C8.5 8.05566 12.3057 4.25 17 4.25C21.6943 4.25 25.5 8.05566 25.5 12.75C25.5 12.7732 25.5 12.7964 25.4998 12.8196Z" stroke="#FFFFFF" stroke-opacity="1.000000" stroke-width="2.000000" stroke-linejoin="round"/>
	</g>
</svg>
