<svg width="24.000000" height="24.000000" viewBox="0 0 24 24" fill="none" xmlns="http://www.w3.org/2000/svg" xmlns:xlink="http://www.w3.org/1999/xlink">
	<desc>
			Created with Pixso.
	</desc>
	<defs>
		<clipPath id="clip315_6604">
			<rect id="Icon" width="24.000000" height="24.000000" fill="white" fill-opacity="0"/>
		</clipPath>
	</defs>
	<g clip-path="url(#clip315_6604)">
		<path id="Vector (Stroke)" d="M3 6.75C3 6.33569 3.33594 6 3.75 6L20.25 6C20.6641 6 21 6.33569 21 6.75C21 7.16431 20.6641 7.5 20.25 7.5L3.75 7.5C3.33594 7.5 3 7.16431 3 6.75ZM3 12C3 11.5857 3.33594 11.25 3.75 11.25L20.25 11.25C20.6641 11.25 21 11.5857 21 12C21 12.4143 20.6641 12.75 20.25 12.75L3.75 12.75C3.33594 12.75 3 12.4143 3 12ZM11.25 17.25C11.25 16.8357 11.5859 16.5 12 16.5L20.25 16.5C20.6641 16.5 21 16.8357 21 17.25C21 17.6643 20.6641 18 20.25 18L12 18C11.5859 18 11.25 17.6643 11.25 17.25Z" fill="#FFFFFF" fill-opacity="1.000000" fill-rule="evenodd"/>
	</g>
</svg>
