<svg width="24.000000" height="24.000000" viewBox="0 0 24 24" fill="none" xmlns="http://www.w3.org/2000/svg" xmlns:xlink="http://www.w3.org/1999/xlink">
	<desc>
			Created with Pixso.
	</desc>
	<defs>
		<clipPath id="clip272_1901">
			<rect id="Icon" width="24.000000" height="24.000000" fill="white" fill-opacity="0"/>
		</clipPath>
	</defs>
	<g clip-path="url(#clip272_1901)">
		<path id="Star 5" d="M14.6445 8.61017C14.7266 8.80493 14.9102 8.93799 15.1191 8.95483L20.6387 9.39722C21.1367 9.43719 21.3398 10.0596 20.959 10.3851L16.7539 13.9866C16.5938 14.1238 16.5254 14.3391 16.5742 14.5443L17.8574 19.9292C17.9746 20.4158 17.4453 20.8005 17.0176 20.5397L12.293 17.6541C12.1133 17.5441 11.8867 17.5441 11.707 17.6541L6.98242 20.5397C6.55469 20.8005 6.02539 20.4158 6.14258 19.9292L7.42578 14.5443C7.47461 14.3391 7.40625 14.1238 7.24609 13.9866L3.04102 10.3851C2.66016 10.0596 2.86328 9.43719 3.36133 9.39722L8.88086 8.95483C9.08984 8.93799 9.27344 8.80493 9.35547 8.61017L11.4805 3.49872C11.6738 3.03674 12.3281 3.03674 12.5195 3.49872L14.6445 8.61017Z" stroke="#999999" stroke-opacity="1.000000" stroke-width="1.500000" stroke-linejoin="round"/>
	</g>
</svg>
