<svg width="300.000000" height="300.000000" viewBox="0 0 300 300" fill="none" xmlns="http://www.w3.org/2000/svg" xmlns:xlink="http://www.w3.org/1999/xlink">
	<desc>
			Created with Pixso.
	</desc>
	<defs>
		<filter id="filter_288_4518_dd" x="0.000000" y="0.000000" width="300.000000" height="300.000000" filterUnits="userSpaceOnUse" color-interpolation-filters="sRGB">
			<feFlood flood-opacity="0" result="BackgroundImageFix"/>
			<feGaussianBlur in="BackgroundImage" stdDeviation="4"/>
			<feComposite in2="SourceAlpha" operator="in" result="effect_backgroundBlur_1"/>
			<feBlend mode="normal" in="SourceGraphic" in2="effect_backgroundBlur_1" result="shape"/>
		</filter>
		<filter id="filter_288_4520_dd" x="123.151611" y="115.452393" width="64.831543" height="69.747314" filterUnits="userSpaceOnUse" color-interpolation-filters="sRGB">
			<feFlood flood-opacity="0" result="BackgroundImageFix"/>
			<feGaussianBlur in="BackgroundImage" stdDeviation="4"/>
			<feComposite in2="SourceAlpha" operator="in" result="effect_backgroundBlur_1"/>
			<feBlend mode="normal" in="SourceGraphic" in2="effect_backgroundBlur_1" result="shape"/>
		</filter>
		<clipPath id="clip288_4519">
			<rect id="Icon" width="101.759125" height="101.759125" transform="translate(104.071777 99.446411)" fill="white" fill-opacity="0"/>
		</clipPath>
		<linearGradient id="paint_linear_288_4518_0" x1="150.000000" y1="0.000000" x2="150.000000" y2="300.000000" gradientUnits="userSpaceOnUse">
			<stop stop-color="#FFFFFF" stop-opacity="0.501961"/>
			<stop offset="1.000000" stop-color="#FFFFFF"/>
		</linearGradient>
		<linearGradient id="paint_linear_288_4518_1" x1="150.000000" y1="0.000000" x2="150.000000" y2="300.000000" gradientUnits="userSpaceOnUse">
			<stop stop-color="#FFFFFF" stop-opacity="0.000000"/>
			<stop offset="1.000000" stop-color="#FFFFFF"/>
		</linearGradient>
		<linearGradient id="paint_linear_288_4520_0" x1="155.567368" y1="115.452393" x2="155.567368" y2="185.199707" gradientUnits="userSpaceOnUse">
			<stop offset="0.147231" stop-color="#FFFFFF"/>
			<stop offset="0.427610" stop-color="#FFFFFF" stop-opacity="0.501961"/>
			<stop offset="1.000000" stop-color="#1600FD" stop-opacity="0.000000"/>
		</linearGradient>
		<linearGradient id="paint_linear_288_4520_1" x1="155.567368" y1="115.452393" x2="155.567368" y2="185.199707" gradientUnits="userSpaceOnUse">
			<stop stop-color="#FFFFFF" stop-opacity="0.000000"/>
			<stop offset="1.000000" stop-color="#FFFFFF"/>
		</linearGradient>
	</defs>
	<rect id="Abstract Design" width="300.000000" height="300.000000" fill="#FFFFFF" fill-opacity="0"/>
	<g filter="url(#filter_288_4518_dd)">
		<path id="Vector" d="M248.917 120.42C246.818 54.6636 193.535 1.59888 127.557 0C125.858 0 124.458 1.29919 124.458 2.99805L124.359 47.1686C124.359 49.3671 122.659 51.0659 120.46 51.1659C54.6819 53.1646 1.59937 106.529 0 172.485C0 174.184 1.29956 175.583 2.99902 175.583L47.0842 175.683C49.2837 175.683 50.9829 177.382 51.083 179.58C53.1824 245.336 106.564 298.401 172.443 300C174.142 300 175.542 298.701 175.542 297.002L175.641 252.831C175.641 250.633 177.341 248.934 179.54 248.834C245.318 246.735 298.401 193.371 300 127.515C300 125.816 298.7 124.417 297.001 124.417L252.916 124.317C250.716 124.317 249.017 122.618 248.917 120.42ZM171.243 248.534C133.855 246.336 103.865 215.956 102.466 178.381C102.366 176.782 101.066 175.483 99.4668 175.483L55.4814 175.383C53.1824 175.383 51.3828 173.484 51.4829 171.186C53.6821 133.811 84.072 103.831 121.659 102.432C123.259 102.332 124.559 101.033 124.559 99.4337L124.658 55.363C124.658 53.0646 126.558 51.2659 128.857 51.3657C166.245 53.5643 196.235 83.9441 197.634 121.519C197.734 123.118 199.034 124.417 200.633 124.417L244.618 124.517C246.918 124.517 248.717 126.416 248.617 128.714C246.418 167.089 214.529 197.568 175.641 197.568L175.542 244.537C175.441 246.835 173.542 248.634 171.243 248.534Z" fill="url(#paint_linear_288_4518_0)" fill-opacity="0.300000" fill-rule="nonzero"/>
	</g>
	<path id="Vector" d="M127.546 1Q126.454 1.00269 125.933 1.54993Q125.458 2.04822 125.458 2.99805L125.359 47.1708Q125.359 49.5135 124.189 50.7596Q122.977 52.0526 120.505 52.1648Q107.622 52.5564 95.3601 55.5177Q84.7046 58.0908 74.5178 62.6044Q64.7405 66.9365 55.9775 72.7876Q45.7317 79.6287 36.8723 88.5463Q28.0747 97.4017 21.3313 107.614Q15.4719 116.487 11.1636 126.384Q6.72705 136.575 4.21997 147.22Q1.31519 159.553 1 172.496Q1.00195 172.997 1.1936 173.411Q1.33667 173.72 1.58521 173.98Q1.86914 174.277 2.21655 174.428Q2.57422 174.583 2.99902 174.583L47.0867 174.683Q49.4312 174.683 50.6777 175.853Q51.9697 177.065 52.082 179.535Q52.4907 192.34 55.4365 204.533Q58.0273 215.256 62.5808 225.506Q66.9277 235.291 72.7939 244.06Q79.6382 254.291 88.5503 263.139Q97.4749 272 107.771 278.776Q116.575 284.57 126.382 288.84Q136.681 293.324 147.441 295.837Q159.651 298.688 172.454 299Q173.546 298.997 174.067 298.45Q174.542 297.952 174.542 297.002L174.641 252.829Q174.641 250.487 175.81 249.24Q177.023 247.948 179.495 247.835Q192.326 247.426 204.542 244.472Q215.248 241.883 225.481 237.34Q235.317 232.973 244.126 227.074Q254.313 220.251 263.128 211.379Q272.02 202.428 278.813 192.097Q284.581 183.326 288.837 173.56Q293.321 163.269 295.834 152.517Q298.688 140.308 299 127.504Q298.997 126.413 298.451 125.892Q297.952 125.417 297.001 125.417L252.913 125.317Q250.569 125.317 249.322 124.147Q248.03 122.935 247.918 120.465Q247.506 107.552 244.519 95.2642Q241.937 84.6451 237.433 74.4937Q233.05 64.615 227.12 55.7737Q220.32 45.635 211.487 36.8604Q202.602 28.0339 192.352 21.2764Q183.513 15.449 173.66 11.16Q163.543 6.75659 152.977 4.25439Q140.572 1.31702 127.546 1ZM300 127.515C298.401 193.371 245.318 246.735 179.54 248.834C177.341 248.934 175.641 250.633 175.641 252.831L175.542 297.002C175.542 298.701 174.142 300 172.443 300C106.564 298.401 53.1824 245.336 51.083 179.58C50.9829 177.382 49.2837 175.683 47.0842 175.683L2.99902 175.583C1.29956 175.583 0 174.184 0 172.485C1.59937 106.529 54.6819 53.1646 120.46 51.1659C122.659 51.0659 124.359 49.3671 124.359 47.1686L124.458 2.99805C124.458 1.29919 125.858 0 127.557 0C193.535 1.59888 246.818 54.6636 248.917 120.42C249.017 122.618 250.716 124.317 252.916 124.317L297.001 124.417C298.7 124.417 300 125.816 300 127.515ZM100.858 176.927Q101.401 177.414 101.467 178.432Q101.99 192.394 107.075 204.427Q112.379 216.974 122.646 227.425Q132.843 237.804 145.208 243.344Q157.187 248.709 171.199 249.533Q172.271 249.58 173.198 249.236Q174.121 248.894 174.9 248.165Q175.647 247.467 176.055 246.607Q176.492 245.686 176.541 244.58L176.542 244.56L176.639 198.562Q190.741 198.397 202.984 193.545Q215.797 188.467 226.575 178.258Q237.413 167.992 243.184 155.403Q248.79 143.176 249.616 128.758Q249.665 127.645 249.295 126.695Q248.95 125.809 248.242 125.064Q247.521 124.307 246.638 123.92Q245.718 123.517 244.621 123.517L200.633 123.417Q199.739 123.417 199.242 122.973Q198.7 122.486 198.633 121.469Q198.111 107.505 193.024 95.4717Q187.72 82.9247 177.454 72.4753Q167.256 62.095 154.889 56.5557Q142.912 51.1906 128.9 50.3667Q127.787 50.3184 126.836 50.6881Q125.951 51.0327 125.207 51.7402Q124.448 52.4614 124.061 53.3455Q123.658 54.265 123.658 55.3608L123.559 99.4337Q123.559 100.327 123.115 100.823Q122.628 101.366 121.609 101.433Q107.625 101.956 95.5747 107.052Q83.0408 112.354 72.6001 122.604Q62.2039 132.811 56.6619 145.191Q51.3069 157.152 50.4839 171.142Q50.4353 172.255 50.8047 173.204Q51.1494 174.091 51.8579 174.836Q52.5786 175.593 53.4617 175.98Q54.3823 176.383 55.4792 176.383L99.4668 176.483Q100.361 176.483 100.858 176.927ZM121.659 102.432C84.072 103.831 53.6821 133.811 51.4829 171.186C51.3828 173.484 53.1824 175.383 55.4814 175.383L99.4668 175.483C101.066 175.483 102.366 176.782 102.466 178.381C103.865 215.956 133.855 246.336 171.243 248.534C173.542 248.634 175.441 246.835 175.542 244.537L175.641 197.568C214.529 197.568 246.418 167.089 248.617 128.714C248.717 126.416 246.918 124.517 244.618 124.517L200.633 124.417C199.034 124.417 197.734 123.118 197.634 121.519C196.235 83.9441 166.245 53.5643 128.857 51.3657C126.558 51.2659 124.658 53.0646 124.658 55.363L124.559 99.4337C124.559 101.033 123.259 102.332 121.659 102.432Z" fill="url(#paint_linear_288_4518_1)" fill-opacity="0.500000" fill-rule="evenodd"/>
	<g clip-path="url(#clip288_4519)">
		<g filter="url(#filter_288_4520_dd)">
			<path id="Rectangle 511 (Stroke)" d="M123.152 123.414C123.152 117.367 129.635 113.534 134.933 116.448L183.865 143.36C189.356 146.381 189.356 154.271 183.865 157.292L134.933 184.204C129.635 187.118 123.152 183.285 123.152 177.238L123.152 123.414Z" fill="url(#paint_linear_288_4520_0)" fill-opacity="0.300000" fill-rule="evenodd"/>
		</g>
		<path id="Rectangle 511 (Stroke)" d="M123.152 123.414C123.152 117.367 129.635 113.534 134.933 116.448L183.865 143.36C189.356 146.381 189.356 154.271 183.865 157.292L134.933 184.204C129.635 187.118 123.152 183.285 123.152 177.238L123.152 123.414ZM124.152 177.238L124.152 123.414Q124.152 121.431 125.005 119.936Q125.858 118.44 127.564 117.431Q129.271 116.422 130.992 116.396Q132.714 116.369 134.451 117.324L183.383 144.236Q185.183 145.227 186.083 146.749Q186.983 148.271 186.983 150.326Q186.983 152.381 186.083 153.903Q185.183 155.426 183.383 156.416L134.451 183.328Q132.714 184.283 130.992 184.257Q129.271 184.23 127.564 183.221Q125.858 182.212 125.005 180.716Q124.152 179.221 124.152 177.238Z" fill="url(#paint_linear_288_4520_1)" fill-opacity="0.500000" fill-rule="evenodd"/>
	</g>
</svg>
