<svg width="24.000000" height="24.000000" viewBox="0 0 24 24" fill="none" xmlns="http://www.w3.org/2000/svg" xmlns:xlink="http://www.w3.org/1999/xlink">
	<desc>
			Created with Pixso.
	</desc>
	<defs>
		<clipPath id="clip305_456">
			<rect id="Icon" width="24.000000" height="24.000000" fill="white" fill-opacity="0"/>
		</clipPath>
	</defs>
	<g clip-path="url(#clip305_456)">
		<path id="Vector" d="M5.9043 18.5L7.51953 18.5C8.00391 18.5 8.48438 18.578 8.94238 18.731L12.0576 19.769C12.5156 19.922 12.9961 20 13.4805 20L17.4961 20C18.1143 20 18.7139 19.7526 19.1006 19.2712C20.7578 17.2136 21.75 14.5977 21.75 11.75C21.75 11.3158 21.7266 10.8871 21.6816 10.4648C21.5732 9.44397 20.6543 8.75 19.6279 8.75L16.502 8.75C15.8838 8.75 15.5107 8.026 15.7764 7.46765C16.2402 6.49268 16.5 5.40161 16.5 4.25C16.5 3.00732 15.4922 2 14.25 2C13.8359 2 13.5 2.33582 13.5 2.75L13.5 3.38342C13.5 3.95581 13.3906 4.52307 13.1777 5.05469C12.874 5.81433 12.248 6.38562 11.5254 6.77026C10.4121 7.3634 9.4375 8.18384 8.66406 9.16968C8.16602 9.8042 7.43848 10.25 6.63281 10.25M2.25 15.125C2.25 16.3451 2.43164 17.5226 2.77051 18.632C3.03027 19.4819 3.85449 20 4.74316 20L5.65039 20C6.09668 20 6.37109 19.5017 6.17383 19.1022C6.07715 18.9054 5.9873 18.7046 5.9043 18.5C5.48242 17.4578 5.25 16.3185 5.25 15.125C5.25 13.4169 5.72559 11.8198 6.55273 10.4592C6.79688 10.0559 6.52441 9.5 6.05176 9.5L4.99902 9.5C4.16699 9.5 3.38672 9.953 3.08105 10.7272C2.54492 12.089 2.25 13.5725 2.25 15.125ZM16.502 8.75L14.25 8.75" stroke="#FFFFFF" stroke-opacity="1.000000" stroke-width="2.000000" stroke-linejoin="round" stroke-linecap="round"/>
	</g>
</svg>
