<svg width="24.000000" height="24.000000" viewBox="0 0 24 24" fill="none" xmlns="http://www.w3.org/2000/svg" xmlns:xlink="http://www.w3.org/1999/xlink">
	<desc>
			Created with Pixso.
	</desc>
	<defs>
		<clipPath id="clip305_459">
			<rect id="Icon" width="24.000000" height="24.000000" fill="white" fill-opacity="0"/>
		</clipPath>
	</defs>
	<g clip-path="url(#clip305_459)">
		<path id="Vector" d="M19.1143 5.63586C22.6289 9.15063 22.6289 14.8491 19.1143 18.3639M16.4629 8.2876C18.5127 10.3379 18.5127 13.662 16.4629 15.7123M11.4697 3.53027C11.9424 3.05774 12.75 3.39246 12.75 4.06055L12.75 19.9392C12.75 20.6074 11.9424 20.942 11.4697 20.4696L6.75 15.7499L4.50879 15.7499C3.62988 15.7499 2.80566 15.2434 2.57227 14.3956C2.3623 13.6329 2.25 12.8295 2.25 11.9999C2.25 11.1703 2.3623 10.3669 2.57227 9.60413C2.80566 8.75635 3.62988 8.24988 4.50879 8.24988L6.75 8.24988L11.4697 3.53027Z" stroke="#FFFFFF" stroke-opacity="1.000000" stroke-width="2.000000" stroke-linejoin="round"/>
	</g>
</svg>
