<svg width="24.000000" height="24.000000" viewBox="0 0 24 24" fill="none" xmlns="http://www.w3.org/2000/svg" xmlns:xlink="http://www.w3.org/1999/xlink">
	<desc>
			Created with Pixso.
	</desc>
	<defs/>
	<path id="Vector" d="M22.2234 0L1.77197 0C0.792236 0 0 0.773438 0 1.72974L0 22.2656C0 23.2219 0.792236 24 1.77197 24L22.2234 24C23.2031 24 24 23.2219 24 22.2703L24 1.72974C24 0.773438 23.2031 0 22.2234 0ZM7.12036 20.4517L3.55786 20.4517L3.55786 8.99536L7.12036 8.99536L7.12036 20.4517ZM5.33911 7.43433C4.19531 7.43433 3.27197 6.51099 3.27197 5.37183C3.27197 4.23291 4.19531 3.30933 5.33911 3.30933C6.47803 3.30933 7.40161 4.23291 7.40161 5.37183C7.40161 6.50635 6.47803 7.43433 5.33911 7.43433ZM20.4517 20.4517L16.8938 20.4517L16.8938 14.8828C16.8938 13.5562 16.8704 11.8452 15.0422 11.8452C13.1907 11.8452 12.9094 13.2937 12.9094 14.7891L12.9094 20.4517L9.3562 20.4517L9.3562 8.99536L12.7688 8.99536L12.7688 10.561L12.8157 10.561C13.2891 9.66089 14.4517 8.70947 16.1812 8.70947C19.7859 8.70947 20.4517 11.0813 20.4517 14.1655L20.4517 20.4517Z" fill="#FFFFFF" fill-opacity="1.000000" fill-rule="nonzero"/>
</svg>
