<svg width="30.000000" height="30.000000" viewBox="0 0 30 30" fill="none" xmlns="http://www.w3.org/2000/svg" xmlns:xlink="http://www.w3.org/1999/xlink">
	<desc>
			Created with Pixso.
	</desc>
	<defs>
		<filter id="filter_288_4683_dd" x="1.645996" y="4.799316" width="27.000000" height="19.792732" filterUnits="userSpaceOnUse" color-interpolation-filters="sRGB">
			<feFlood flood-opacity="0" result="BackgroundImageFix"/>
			<feGaussianBlur in="BackgroundImage" stdDeviation="4"/>
			<feComposite in2="SourceAlpha" operator="in" result="effect_backgroundBlur_1"/>
			<feBlend mode="normal" in="SourceGraphic" in2="effect_backgroundBlur_1" result="shape"/>
		</filter>
		<clipPath id="clip288_4682">
			<rect id="Frame" width="27.000000" height="19.799999" transform="translate(1.649902 4.800049)" fill="white" fill-opacity="0"/>
		</clipPath>
		<clipPath id="clip288_4681">
			<rect id="Icon" width="30.000000" height="30.000000" fill="white" fill-opacity="0"/>
		</clipPath>
	</defs>
	<g clip-path="url(#clip288_4681)">
		<rect id="Frame" width="27.000000" height="19.799999" transform="translate(1.649902 4.800049)" fill="#FFFFFF" fill-opacity="0"/>
		<g clip-path="url(#clip288_4682)">
			<g filter="url(#filter_288_4683_dd)">
				<mask id="mask_288_4683" fill="white">
					<path id="Union" d="M14.2603 8.0162L16.0398 8.0162C16.0398 7.73694 16.0417 7.46384 16.0439 7.19446C16.0479 6.66658 16.0518 6.15303 16.0398 5.63553C16.0217 5.16838 15.6443 4.827 15.1948 4.80005C14.7456 4.78207 14.2961 5.09651 14.269 5.5457C14.2441 6.11684 14.2495 6.68797 14.2554 7.26524C14.2578 7.51425 14.2603 7.7644 14.2603 8.0162ZM1.6499 19.6411C1.61353 18.647 1.89209 17.7184 2.17163 16.7875C2.2356 16.5742 2.2998 16.3608 2.36011 16.1464C2.72852 14.8258 3.12402 13.5052 3.5105 12.1846C4.53516 8.6181 9.04712 7.15378 11.8064 9.65123C11.9233 9.75903 12.1211 9.82193 12.2827 9.82193Q13.7195 9.82877 15.1562 9.82866L15.2007 9.82866Q16.573 9.82846 17.9453 9.82193C18.0891 9.82193 18.2778 9.75903 18.3857 9.66022C21.073 7.19868 25.4863 8.5732 26.5828 12.005C27.2837 14.197 27.9131 16.407 28.4973 18.6349C29.1714 21.1773 27.4814 23.8634 24.9199 24.4563C22.7898 24.9504 20.4709 23.7556 19.5452 21.6624C18.9878 20.4137 18.125 19.5063 16.7859 19.1739C15.5635 18.8775 14.3142 18.8685 13.1096 19.2997C11.9233 19.7219 11.1143 20.5754 10.6111 21.7343C10.0627 23.0099 9.11914 23.8993 7.79785 24.3395C4.82275 25.3277 1.84766 23.3064 1.6499 20.1801C1.64404 20.0603 1.646 19.9405 1.64795 19.8207C1.64893 19.7608 1.6499 19.701 1.6499 19.6411ZM7.95068 13.9903C7.83569 13.9903 7.72754 13.9893 7.62305 13.9882C7.42456 13.9863 7.24023 13.9845 7.05176 13.9903C6.51245 14.0173 6.13501 14.4126 6.15308 14.9067C6.16187 15.3828 6.53955 15.7511 7.06079 15.7781C7.24292 15.784 7.42505 15.7822 7.62231 15.7802L7.62231 15.7802C7.72681 15.7792 7.83545 15.7781 7.95068 15.7781L7.95068 16.5776C7.95947 17.1885 8.32812 17.5838 8.8584 17.5748C9.37964 17.5658 9.73022 17.1795 9.73926 16.5956C9.74512 16.4244 9.74316 16.2532 9.74121 16.0718C9.74023 15.9771 9.73926 15.8797 9.73926 15.7781C9.85938 15.7781 9.96948 15.7792 10.0735 15.7803C10.2651 15.7822 10.4363 15.7839 10.6111 15.7781C11.1504 15.7601 11.5369 15.3828 11.5369 14.8797C11.5369 14.3856 11.1504 14.0083 10.6111 13.9903C10.4272 13.9844 10.2434 13.9863 10.0518 13.9883C9.95288 13.9893 9.85205 13.9903 9.74829 13.9903C9.74829 13.8782 9.74927 13.7726 9.75024 13.6712C9.7522 13.4801 9.75415 13.304 9.74829 13.1279C9.73022 12.5799 9.35278 12.1936 8.8584 12.1936C8.35498 12.1846 7.97754 12.5709 7.95947 13.1099C7.94629 13.3086 7.94775 13.5024 7.94946 13.7309C7.94995 13.8124 7.95068 13.8983 7.95068 13.9903ZM20.6597 14.8348C20.3721 15.1223 20.1653 15.3109 19.9675 15.5176C19.5452 15.9578 19.5271 16.4968 19.9136 16.8741C20.291 17.2424 20.8035 17.2155 21.2349 16.8022C21.4507 16.5956 21.6394 16.371 21.927 16.0656C22.1697 16.3531 22.3494 16.5956 22.5562 16.8112C22.9695 17.2245 23.491 17.2424 23.8684 16.8741C24.2368 16.5148 24.2368 15.9757 23.8325 15.5535C23.6167 15.3289 23.374 15.1403 23.0955 14.8797C23.4009 14.6102 23.6348 14.4216 23.8413 14.2059C24.2368 13.7927 24.2458 13.2537 23.8684 12.8854C23.5088 12.535 22.9875 12.544 22.583 12.9303C22.3584 13.1459 22.1606 13.3884 21.918 13.6579C21.6753 13.3974 21.4956 13.1998 21.3069 13.0111C20.8484 12.553 20.3091 12.508 19.9226 12.8943C19.5361 13.2806 19.563 13.8197 20.0215 14.2778C20.2012 14.4575 20.417 14.6192 20.6597 14.8348Z" clip-rule="evenodd" fill="" fill-opacity="1.000000" fill-rule="evenodd"/>
				</mask>
				<path id="Union" d="M14.2603 8.0162L16.0398 8.0162C16.0398 7.73694 16.0417 7.46384 16.0439 7.19446C16.0479 6.66658 16.0518 6.15303 16.0398 5.63553C16.0217 5.16838 15.6443 4.827 15.1948 4.80005C14.7456 4.78207 14.2961 5.09651 14.269 5.5457C14.2441 6.11684 14.2495 6.68797 14.2554 7.26524C14.2578 7.51425 14.2603 7.7644 14.2603 8.0162ZM1.6499 19.6411C1.61353 18.647 1.89209 17.7184 2.17163 16.7875C2.2356 16.5742 2.2998 16.3608 2.36011 16.1464C2.72852 14.8258 3.12402 13.5052 3.5105 12.1846C4.53516 8.6181 9.04712 7.15378 11.8064 9.65123C11.9233 9.75903 12.1211 9.82193 12.2827 9.82193Q13.7195 9.82877 15.1562 9.82866L15.2007 9.82866Q16.573 9.82846 17.9453 9.82193C18.0891 9.82193 18.2778 9.75903 18.3857 9.66022C21.073 7.19868 25.4863 8.5732 26.5828 12.005C27.2837 14.197 27.9131 16.407 28.4973 18.6349C29.1714 21.1773 27.4814 23.8634 24.9199 24.4563C22.7898 24.9504 20.4709 23.7556 19.5452 21.6624C18.9878 20.4137 18.125 19.5063 16.7859 19.1739C15.5635 18.8775 14.3142 18.8685 13.1096 19.2997C11.9233 19.7219 11.1143 20.5754 10.6111 21.7343C10.0627 23.0099 9.11914 23.8993 7.79785 24.3395C4.82275 25.3277 1.84766 23.3064 1.6499 20.1801C1.64404 20.0603 1.646 19.9405 1.64795 19.8207C1.64893 19.7608 1.6499 19.701 1.6499 19.6411ZM7.95068 13.9903C7.83569 13.9903 7.72754 13.9893 7.62305 13.9882C7.42456 13.9863 7.24023 13.9845 7.05176 13.9903C6.51245 14.0173 6.13501 14.4126 6.15308 14.9067C6.16187 15.3828 6.53955 15.7511 7.06079 15.7781C7.24292 15.784 7.42505 15.7822 7.62231 15.7802L7.62231 15.7802C7.72681 15.7792 7.83545 15.7781 7.95068 15.7781L7.95068 16.5776C7.95947 17.1885 8.32812 17.5838 8.8584 17.5748C9.37964 17.5658 9.73022 17.1795 9.73926 16.5956C9.74512 16.4244 9.74316 16.2532 9.74121 16.0718C9.74023 15.9771 9.73926 15.8797 9.73926 15.7781C9.85938 15.7781 9.96948 15.7792 10.0735 15.7803C10.2651 15.7822 10.4363 15.7839 10.6111 15.7781C11.1504 15.7601 11.5369 15.3828 11.5369 14.8797C11.5369 14.3856 11.1504 14.0083 10.6111 13.9903C10.4272 13.9844 10.2434 13.9863 10.0518 13.9883C9.95288 13.9893 9.85205 13.9903 9.74829 13.9903C9.74829 13.8782 9.74927 13.7726 9.75024 13.6712C9.7522 13.4801 9.75415 13.304 9.74829 13.1279C9.73022 12.5799 9.35278 12.1936 8.8584 12.1936C8.35498 12.1846 7.97754 12.5709 7.95947 13.1099C7.94629 13.3086 7.94775 13.5024 7.94946 13.7309C7.94995 13.8124 7.95068 13.8983 7.95068 13.9903ZM20.6597 14.8348C20.3721 15.1223 20.1653 15.3109 19.9675 15.5176C19.5452 15.9578 19.5271 16.4968 19.9136 16.8741C20.291 17.2424 20.8035 17.2155 21.2349 16.8022C21.4507 16.5956 21.6394 16.371 21.927 16.0656C22.1697 16.3531 22.3494 16.5956 22.5562 16.8112C22.9695 17.2245 23.491 17.2424 23.8684 16.8741C24.2368 16.5148 24.2368 15.9757 23.8325 15.5535C23.6167 15.3289 23.374 15.1403 23.0955 14.8797C23.4009 14.6102 23.6348 14.4216 23.8413 14.2059C24.2368 13.7927 24.2458 13.2537 23.8684 12.8854C23.5088 12.535 22.9875 12.544 22.583 12.9303C22.3584 13.1459 22.1606 13.3884 21.918 13.6579C21.6753 13.3974 21.4956 13.1998 21.3069 13.0111C20.8484 12.553 20.3091 12.508 19.9226 12.8943C19.5361 13.2806 19.563 13.8197 20.0215 14.2778C20.2012 14.4575 20.417 14.6192 20.6597 14.8348Z" clip-rule="evenodd" fill="#E60000" fill-opacity="1.000000" fill-rule="evenodd" mask="url(#mask_288_4683)"/>
			</g>
			<path id="Union" d="M16.0398 8.0162L14.2603 8.0162C14.2603 7.7644 14.2578 7.51425 14.2554 7.26524C14.2495 6.68797 14.2441 6.11684 14.269 5.5457C14.2961 5.09651 14.7456 4.78207 15.1948 4.80005C15.6443 4.827 16.0217 5.16838 16.0398 5.63553C16.0517 6.1496 16.0479 6.65977 16.044 7.18397L16.0439 7.19446C16.0417 7.46384 16.0398 7.73694 16.0398 8.0162ZM2.17163 16.7875C1.89209 17.7184 1.61353 18.647 1.6499 19.6411C1.6499 19.701 1.64893 19.7608 1.64795 19.8207C1.646 19.9405 1.64404 20.0603 1.6499 20.1801C1.84766 23.3064 4.82275 25.3277 7.79785 24.3395C9.11914 23.8993 10.0627 23.0099 10.6111 21.7343C11.1143 20.5754 11.9233 19.7219 13.1096 19.2997C14.3142 18.8685 15.5635 18.8775 16.7859 19.1739C18.125 19.5063 18.9878 20.4137 19.5452 21.6624C20.4709 23.7556 22.7898 24.9504 24.9199 24.4563C27.4814 23.8634 29.1714 21.1773 28.4973 18.6349C27.9131 16.407 27.2837 14.197 26.5828 12.005C25.4863 8.5732 21.073 7.19868 18.3857 9.66022C18.2778 9.75903 18.0891 9.82193 17.9453 9.82193Q16.573 9.82846 15.2007 9.82866L15.1562 9.82866L15.112 9.82866Q13.6974 9.82866 12.2827 9.82193C12.1211 9.82193 11.9233 9.75903 11.8064 9.65123C9.04712 7.15378 4.53516 8.6181 3.5105 12.1846C3.12402 13.5052 2.72852 14.8258 2.36011 16.1464C2.2998 16.3608 2.2356 16.5742 2.17163 16.7875ZM2.6499 19.6227L2.64941 19.6043Q2.62939 19.0648 2.77075 18.3977Q2.86206 17.9656 3.12939 17.075L3.12939 17.075Q3.26001 16.64 3.32275 16.4173Q3.59766 15.4315 4.17871 13.4574Q4.37354 12.7964 4.47021 12.4655Q4.62577 11.9241 4.90707 11.4587Q5.17324 11.0184 5.552 10.6461Q5.89002 10.3139 6.28203 10.0676Q6.75472 9.77058 7.30591 9.59853Q7.99181 9.38441 8.67078 9.4045Q8.98727 9.41386 9.30225 9.47411Q9.76519 9.56265 10.18 9.75504Q10.6948 9.99384 11.1355 10.3926Q11.3669 10.6064 11.7004 10.7219Q11.9457 10.8069 12.1947 10.8197Q12.2386 10.8219 12.2827 10.8219L15.1538 10.8287L15.2009 10.8287L17.9478 10.8219Q18.2295 10.8219 18.5151 10.7199Q18.8333 10.6063 19.0613 10.3975Q19.4881 10.0066 19.9878 9.76929Q20.3922 9.57719 20.8445 9.48567Q21.1419 9.42547 21.4416 9.4115Q22.1143 9.38012 22.7979 9.58176Q23.337 9.74076 23.8034 10.0208Q24.1933 10.2549 24.5325 10.5735Q24.9421 10.9583 25.2251 11.4205Q25.4782 11.8339 25.6301 12.3093Q26.5989 15.3383 27.5298 18.8885Q27.6108 19.1941 27.6356 19.5041Q27.6697 19.932 27.5967 20.3684Q27.559 20.5932 27.495 20.8102Q27.3504 21.3 27.0718 21.7503Q26.8401 22.1244 26.5401 22.432Q26.3189 22.6588 26.0605 22.8494Q25.6711 23.1368 25.2364 23.3117Q24.9737 23.4174 24.6946 23.4821Q24.5404 23.5178 24.3843 23.5386Q23.9267 23.5997 23.4519 23.5324Q23.3098 23.5123 23.1701 23.4813Q22.6915 23.3752 22.2412 23.1418Q21.9427 22.9871 21.678 22.7875Q21.4227 22.5949 21.199 22.3607Q20.9149 22.0634 20.7035 21.7212Q20.5663 21.499 20.4597 21.2579Q19.9395 20.0919 19.1426 19.345Q18.7883 19.0129 18.3826 18.7647Q17.7643 18.3865 17.0266 18.2034Q15.1476 17.7476 13.4743 18.149Q13.1189 18.2343 12.7727 18.3582Q12.0986 18.5981 11.5361 18.9957Q11.1974 19.235 10.8992 19.5315Q10.157 20.2693 9.69385 21.3359Q9.33981 22.1596 8.7306 22.6903Q8.20215 23.1508 7.48169 23.3908Q6.86179 23.5967 6.24327 23.5926Q5.99677 23.591 5.75049 23.5561Q5.33432 23.497 4.95294 23.3486Q4.58169 23.2041 4.24341 22.9749Q3.91409 22.7518 3.64721 22.4696Q3.35814 22.164 3.14233 21.7891Q3.01789 21.5728 2.92421 21.344Q2.68931 20.7701 2.64795 20.117Q2.64453 20.0436 2.64795 19.8374Q2.6499 19.7093 2.6499 19.6411L2.6499 19.6227ZM7.95947 13.1099C7.95813 13.1302 7.95694 13.1503 7.95589 13.1705C7.9466 13.3482 7.94793 13.5252 7.94946 13.7302L7.94946 13.7309C7.94995 13.8124 7.95068 13.8983 7.95068 13.9903C7.83569 13.9903 7.72754 13.9893 7.62305 13.9882L7.62285 13.9882C7.42444 13.9863 7.24017 13.9845 7.05176 13.9903C7.03186 13.9913 7.01219 13.9928 6.99275 13.9948C6.48514 14.0466 6.13568 14.4308 6.15308 14.9067C6.16187 15.3828 6.53955 15.7511 7.06079 15.7781C7.2428 15.784 7.42482 15.7822 7.62194 15.7802L7.62231 15.7802C7.72681 15.7792 7.83545 15.7781 7.95068 15.7781L7.95068 16.5776C7.95123 16.6157 7.95317 16.6529 7.95647 16.6892C8.00603 17.2362 8.36116 17.5833 8.8584 17.5748C9.34548 17.5664 9.68354 17.2286 9.73313 16.7078C9.73661 16.6713 9.73867 16.6339 9.73926 16.5956C9.74504 16.4268 9.74322 16.2579 9.74129 16.0793L9.74121 16.0718C9.74023 15.9771 9.73926 15.8797 9.73926 15.7781C9.85938 15.7781 9.96948 15.7792 10.0735 15.7803L10.0741 15.7803C10.2655 15.7822 10.4365 15.7839 10.6111 15.7781C10.6428 15.777 10.6739 15.7747 10.7045 15.7712C11.1945 15.7154 11.5369 15.3533 11.5369 14.8797C11.5369 14.4132 11.1923 14.0508 10.6998 13.9967C10.6708 13.9935 10.6412 13.9913 10.6111 13.9903C10.4273 13.9844 10.2436 13.9863 10.0521 13.9883L10.0518 13.9883C9.95288 13.9893 9.85205 13.9903 9.74829 13.9903C9.74829 13.8782 9.74927 13.7726 9.75024 13.6712L9.75036 13.6601C9.75227 13.4733 9.75404 13.3006 9.74829 13.1279C9.74726 13.0968 9.74507 13.0661 9.74177 13.036C9.68692 12.5372 9.32467 12.1936 8.8584 12.1936C8.35498 12.1846 7.97754 12.5709 7.95947 13.1099ZM10.7422 12.9963Q10.9809 13.0148 11.2035 13.0848Q11.283 13.1097 11.3604 13.1412Q11.5808 13.231 11.7678 13.3668Q11.8747 13.4444 11.9707 13.537Q12.1138 13.6752 12.2222 13.8367Q12.3192 13.981 12.3884 14.1439Q12.446 14.2793 12.4812 14.4204Q12.5369 14.6431 12.5369 14.8797Q12.5369 15.1274 12.4769 15.3595Q12.4431 15.4906 12.3901 15.6168Q12.3193 15.7855 12.219 15.9344Q12.1126 16.0923 11.9731 16.2279Q11.8758 16.3225 11.7671 16.4016Q11.5808 16.537 11.3613 16.6267Q11.2854 16.6577 11.2075 16.6823Q10.9781 16.755 10.7312 16.7729Q10.7073 17.0651 10.613 17.3298Q10.5156 17.6023 10.3515 17.8258Q10.2963 17.9009 10.2336 17.9705Q10.1036 18.1147 9.94966 18.2259Q9.79498 18.3377 9.61621 18.416Q9.53657 18.4509 9.45438 18.4782Q9.17907 18.5694 8.87524 18.5747Q8.57845 18.5797 8.30593 18.5008Q8.20678 18.4721 8.11084 18.4323Q7.9313 18.3579 7.7751 18.2497Q7.61057 18.1357 7.47192 17.9844Q7.40979 17.9166 7.35485 17.8434Q7.18224 17.6135 7.08057 17.3303Q6.98696 17.0697 6.96067 16.7737Q6.71288 16.7555 6.48267 16.6821Q6.39647 16.6546 6.31274 16.6194Q6.10004 16.5299 5.9188 16.3974Q5.81441 16.3211 5.72046 16.2306Q5.57708 16.0922 5.46828 15.9306Q5.37683 15.7947 5.30981 15.6423Q5.20174 15.3966 5.16827 15.1411Q5.1554 15.0428 5.15356 14.943Q5.14521 14.7101 5.19143 14.4885Q5.22219 14.3411 5.2771 14.1987Q5.34143 14.0321 5.43456 13.8835Q5.53792 13.7186 5.67676 13.5759Q5.77566 13.4743 5.88732 13.3894Q6.06725 13.2526 6.28027 13.1593Q6.59598 13.0211 6.96444 12.9943Q6.98195 12.7447 7.05557 12.513Q7.08029 12.4352 7.11133 12.3594Q7.20282 12.1357 7.34181 11.9471Q7.41978 11.8412 7.5127 11.7464Q7.6515 11.6048 7.81333 11.498Q7.96233 11.3998 8.13086 11.3311Q8.36088 11.2374 8.59892 11.2074Q8.72749 11.1912 8.8584 11.1936Q9.09765 11.1936 9.32255 11.2504Q9.46163 11.2856 9.59521 11.3424Q9.7565 11.4111 9.8995 11.5071Q10.0634 11.617 10.2034 11.7629Q10.2914 11.8546 10.3658 11.9562Q10.5066 12.1488 10.5986 12.377Q10.6269 12.4471 10.6498 12.5189Q10.7232 12.7489 10.7422 12.9963ZM19.917 14.1631C19.9489 14.2018 19.9837 14.2401 20.0215 14.2778C20.2012 14.4575 20.417 14.6192 20.6597 14.8348C20.3721 15.1223 20.1653 15.3109 19.9675 15.5176C19.9605 15.5249 19.9535 15.5323 19.9467 15.5397C19.5447 15.9757 19.5336 16.5031 19.9136 16.8741C20.291 17.2424 20.8035 17.2155 21.2349 16.8022C21.2357 16.8015 21.2365 16.8007 21.2372 16.8C21.4521 16.594 21.6405 16.3699 21.927 16.0656C22.1697 16.3531 22.3494 16.5956 22.5562 16.8112C22.5636 16.8186 22.571 16.8259 22.5785 16.8331C22.9882 17.225 23.4977 17.2358 23.8684 16.8741C24.2352 16.5163 24.2368 15.9803 23.8377 15.5589C23.836 15.5571 23.8342 15.5553 23.8325 15.5535C23.6167 15.3289 23.374 15.1403 23.0955 14.8797C23.4005 14.6105 23.6343 14.422 23.8406 14.2067L23.8413 14.2059C24.2368 13.7927 24.2458 13.2537 23.8684 12.8854C23.5125 12.5386 22.9984 12.5438 22.5957 12.9183C22.5915 12.9223 22.5872 12.9262 22.583 12.9303C22.3584 13.1459 22.1606 13.3884 21.918 13.6579C21.6753 13.3974 21.4956 13.1998 21.3069 13.0111C21.2796 12.9838 21.252 12.958 21.2241 12.9337C20.7847 12.5491 20.2861 12.5311 19.9226 12.8943C19.568 13.2488 19.5614 13.7319 19.917 14.1631ZM21.9018 12.1981Q21.6701 11.9911 21.4109 11.857Q21.1038 11.6982 20.7806 11.6519Q20.7263 11.6442 20.6716 11.6396Q20.453 11.6212 20.2425 11.6542Q20.058 11.6831 19.8796 11.7514Q19.7972 11.783 19.7185 11.8222Q19.4442 11.9587 19.2156 12.1871Q18.9848 12.4178 18.8463 12.6947Q18.811 12.7652 18.7817 12.8387Q18.7068 13.0263 18.6757 13.221Q18.6439 13.4191 18.6575 13.6244Q18.6624 13.6995 18.6732 13.7736Q18.7181 14.0806 18.8652 14.3726Q18.9976 14.6353 19.205 14.869Q18.9627 15.1333 18.8198 15.4404Q18.6937 15.7114 18.6544 15.9945Q18.6415 16.0874 18.6379 16.1815Q18.6304 16.3811 18.665 16.5731Q18.6997 16.7652 18.7766 16.9497Q18.8106 17.0312 18.8519 17.1089Q18.9916 17.3715 19.2151 17.5896Q19.4457 17.8148 19.7207 17.9489Q19.784 17.9798 19.8496 18.0058Q20.0341 18.079 20.2254 18.1099Q20.4134 18.1403 20.6079 18.1298Q20.6884 18.1255 20.768 18.1142Q21.0562 18.0734 21.3315 17.9415Q21.6302 17.7984 21.8906 17.5581Q22.155 17.8076 22.4507 17.9492Q22.7018 18.0693 22.9655 18.1125Q23.0725 18.13 23.1816 18.1348Q23.3662 18.1429 23.5448 18.1144Q23.7439 18.0827 23.9358 18.0054Q24.0075 17.9765 24.0763 17.942Q24.3428 17.8083 24.5667 17.5898Q24.7627 17.3987 24.8941 17.1703Q24.9512 17.0711 24.9961 16.9648Q25.0722 16.7848 25.1081 16.5972Q25.1438 16.4114 25.1401 16.2181Q25.1378 16.0993 25.1207 15.9828Q25.0833 15.7276 24.9749 15.4828Q24.9677 15.4665 24.9602 15.4503Q24.8184 15.1442 24.576 14.8846Q24.8193 14.6263 24.9621 14.3211Q24.9714 14.3013 24.9802 14.2813Q25.0868 14.0401 25.1244 13.7886Q25.1422 13.6695 25.1445 13.5481Q25.1482 13.3578 25.1138 13.1746Q25.0777 12.9829 24.9998 12.7991Q24.9593 12.7034 24.9089 12.6134Q24.7735 12.3715 24.5667 12.1696Q24.3689 11.9768 24.1351 11.851Q24.0428 11.8013 23.9448 11.762Q23.7685 11.6913 23.5854 11.6588Q23.4024 11.6264 23.2126 11.632Q23.094 11.6356 22.9777 11.6539Q22.7319 11.6927 22.4966 11.7978Q22.4733 11.8082 22.4503 11.8191Q22.1532 11.9607 21.9018 12.1981Z" clip-rule="evenodd" fill="#E60000" fill-opacity="1.000000" fill-rule="evenodd"/>
		</g>
	</g>
</svg>
