<svg width="30.000000" height="30.000000" viewBox="0 0 30 30" fill="none" xmlns="http://www.w3.org/2000/svg" xmlns:xlink="http://www.w3.org/1999/xlink">
	<desc>
			Created with Pixso.
	</desc>
	<defs>
		<filter id="filter_288_4673_dd" x="1.352783" y="4.650024" width="27.455322" height="20.099998" filterUnits="userSpaceOnUse" color-interpolation-filters="sRGB">
			<feFlood flood-opacity="0" result="BackgroundImageFix"/>
			<feGaussianBlur in="BackgroundImage" stdDeviation="4"/>
			<feComposite in2="SourceAlpha" operator="in" result="effect_backgroundBlur_1"/>
			<feBlend mode="normal" in="SourceGraphic" in2="effect_backgroundBlur_1" result="shape"/>
		</filter>
		<clipPath id="clip288_4672">
			<rect id="Frame" width="27.449999" height="20.099998" transform="translate(1.350098 4.650024)" fill="white" fill-opacity="0"/>
		</clipPath>
		<clipPath id="clip288_4671">
			<rect id="Icon" width="30.000000" height="30.000000" fill="white" fill-opacity="0"/>
		</clipPath>
	</defs>
	<g clip-path="url(#clip288_4671)">
		<rect id="Frame" width="27.449999" height="20.099998" transform="translate(1.350098 4.650024)" fill="#FFFFFF" fill-opacity="0"/>
		<g clip-path="url(#clip288_4672)">
			<g filter="url(#filter_288_4673_dd)">
				<mask id="mask_288_4673" fill="white">
					<path id="Union" d="M24.8521 4.65002L5.35229 4.65002C4.36304 4.65002 4.08838 4.92412 4.08838 5.88344L4.08838 16.2075C4.08838 17.1577 4.37231 17.4409 5.3064 17.4409L24.8521 17.4409C25.7864 17.4409 26.0703 17.1577 26.0703 16.2075L26.0703 5.88344C26.0703 4.93326 25.7864 4.65002 24.8521 4.65002ZM2.53125 24.75L27.6365 24.75C27.8564 24.75 28.0945 24.7409 28.3052 24.6678C28.7905 24.5033 28.937 24.1013 28.6899 23.6537C27.8198 22.0639 26.9404 20.4833 26.061 18.9028C25.8506 18.5373 25.5483 18.3546 25.127 18.3546L5.02246 18.3546C4.60132 18.3546 4.29907 18.5373 4.09741 18.9028C3.21826 20.4833 2.33887 22.0639 1.46875 23.6537C1.22144 24.1013 1.3772 24.5033 1.86255 24.6678C2.06421 24.7409 2.30225 24.75 2.53125 24.75ZM15.6472 22.9248C15.4548 22.9238 15.2625 22.9228 15.0701 22.9228C14.8782 22.9228 14.686 22.9238 14.4939 22.9248C14.1082 22.9268 13.7209 22.9288 13.3298 22.9228C12.7437 22.9136 12.3408 22.5482 12.3315 22.0274C12.3225 21.4883 12.7346 21.1046 13.3481 21.1046C14.5022 21.0955 15.6655 21.0955 16.8196 21.1046C17.4058 21.1138 17.8088 21.4792 17.8179 22C17.8271 22.5299 17.4148 22.9136 16.8013 22.9228C16.4165 22.9288 16.032 22.9268 15.6472 22.9248Z" clip-rule="evenodd" fill="" fill-opacity="1.000000" fill-rule="evenodd"/>
				</mask>
				<path id="Union" d="M24.8521 4.65002L5.35229 4.65002C4.36304 4.65002 4.08838 4.92412 4.08838 5.88344L4.08838 16.2075C4.08838 17.1577 4.37231 17.4409 5.3064 17.4409L24.8521 17.4409C25.7864 17.4409 26.0703 17.1577 26.0703 16.2075L26.0703 5.88344C26.0703 4.93326 25.7864 4.65002 24.8521 4.65002ZM2.53125 24.75L27.6365 24.75C27.8564 24.75 28.0945 24.7409 28.3052 24.6678C28.7905 24.5033 28.937 24.1013 28.6899 23.6537C27.8198 22.0639 26.9404 20.4833 26.061 18.9028C25.8506 18.5373 25.5483 18.3546 25.127 18.3546L5.02246 18.3546C4.60132 18.3546 4.29907 18.5373 4.09741 18.9028C3.21826 20.4833 2.33887 22.0639 1.46875 23.6537C1.22144 24.1013 1.3772 24.5033 1.86255 24.6678C2.06421 24.7409 2.30225 24.75 2.53125 24.75ZM15.6472 22.9248C15.4548 22.9238 15.2625 22.9228 15.0701 22.9228C14.8782 22.9228 14.686 22.9238 14.4939 22.9248C14.1082 22.9268 13.7209 22.9288 13.3298 22.9228C12.7437 22.9136 12.3408 22.5482 12.3315 22.0274C12.3225 21.4883 12.7346 21.1046 13.3481 21.1046C14.5022 21.0955 15.6655 21.0955 16.8196 21.1046C17.4058 21.1138 17.8088 21.4792 17.8179 22C17.8271 22.5299 17.4148 22.9136 16.8013 22.9228C16.4165 22.9288 16.032 22.9268 15.6472 22.9248Z" clip-rule="evenodd" fill="#E60000" fill-opacity="1.000000" fill-rule="evenodd" mask="url(#mask_288_4673)"/>
			</g>
			<path id="Union" d="M25.4569 17.3763C25.9152 17.2478 26.0703 16.9099 26.0703 16.2075L26.0703 5.88344C26.0703 4.93326 25.7864 4.65002 24.8521 4.65002L5.35229 4.65002C4.36304 4.65002 4.08838 4.92412 4.08838 5.88344L4.08838 16.2075C4.08838 16.9077 4.24256 17.2457 4.69746 17.3751C4.85988 17.4213 5.06064 17.4409 5.3064 17.4409L24.8521 17.4409C25.0958 17.4409 25.2952 17.4217 25.4569 17.3763ZM25.4457 18.3954C25.348 18.3682 25.2419 18.3546 25.127 18.3546L5.02246 18.3546C4.90968 18.3546 4.80542 18.3677 4.70933 18.3939C4.44664 18.4655 4.24507 18.6352 4.09741 18.9028C3.21826 20.4833 2.33887 22.0639 1.46875 23.6537C1.22144 24.1013 1.3772 24.5033 1.86255 24.6678C2.06421 24.7409 2.30225 24.75 2.53125 24.75L27.6365 24.75C27.8564 24.75 28.0945 24.7409 28.3052 24.6678C28.7905 24.5033 28.937 24.1013 28.6899 23.6537C27.8198 22.0639 26.9404 20.4833 26.061 18.9028C25.908 18.637 25.7064 18.4679 25.4457 18.3954ZM5.35229 5.65002L24.8521 5.65002Q24.9539 5.65002 25.0082 5.70082Q25.0703 5.75891 25.0703 5.88344L25.0703 16.2075Q25.0703 16.332 25.0082 16.3901Q24.9539 16.4409 24.8521 16.4409L5.3064 16.4409Q5.20481 16.4409 5.15056 16.3903Q5.08838 16.3322 5.08838 16.2075L5.08838 5.88344Q5.08838 5.78099 5.13922 5.72351Q5.20421 5.65002 5.35229 5.65002ZM2.5583 23.75L12.3392 23.75Q12.011 23.6176 11.7897 23.384Q11.3471 22.9169 11.3318 22.045Q11.3238 21.579 11.5017 21.2004Q11.6511 20.8823 11.9316 20.6259Q12.1186 20.4549 12.3353 20.34Q12.7793 20.1046 13.3481 20.1046L15.0798 20.0978L16.8235 20.1046Q17.8652 20.1208 18.3629 20.6493Q18.8025 21.1161 18.8179 21.9824Q18.8257 22.4342 18.6559 22.8045Q18.506 23.1313 18.218 23.3947Q18.0378 23.5594 17.8296 23.6727Q17.7521 23.7149 17.6708 23.75L27.6002 23.75L25.186 19.3869Q25.178 19.3731 25.1662 19.3652Q25.1501 19.3546 25.127 19.3546L5.02246 19.3546Q5.00927 19.3546 4.99861 19.3598Q4.98324 19.3673 4.97314 19.3856L4.9707 19.39L2.5583 23.75ZM15.0701 22.9228C15.2625 22.9228 15.4548 22.9238 15.6472 22.9248L15.6474 22.9248C16.0321 22.9268 16.4166 22.9288 16.8013 22.9228C17.4148 22.9136 17.8271 22.5299 17.8179 22C17.8088 21.4792 17.4058 21.1138 16.8196 21.1046C15.6655 21.0955 14.5022 21.0955 13.3481 21.1046C12.7346 21.1046 12.3225 21.4883 12.3315 22.0274C12.3408 22.5482 12.7437 22.9136 13.3298 22.9228C13.7209 22.9288 14.1082 22.9268 14.4939 22.9248C14.686 22.9238 14.8782 22.9228 15.0701 22.9228Z" clip-rule="evenodd" fill="#E60000" fill-opacity="1.000000" fill-rule="evenodd"/>
		</g>
	</g>
</svg>
