<svg width="30.000000" height="30.000000" viewBox="0 0 30 30" fill="none" xmlns="http://www.w3.org/2000/svg" xmlns:xlink="http://www.w3.org/1999/xlink">
	<desc>
			Created with Pixso.
	</desc>
	<defs>
		<filter id="filter_288_4645_dd" x="7.796143" y="1.202148" width="14.741211" height="27.004211" filterUnits="userSpaceOnUse" color-interpolation-filters="sRGB">
			<feFlood flood-opacity="0" result="BackgroundImageFix"/>
			<feGaussianBlur in="BackgroundImage" stdDeviation="4"/>
			<feComposite in2="SourceAlpha" operator="in" result="effect_backgroundBlur_1"/>
			<feBlend mode="normal" in="SourceGraphic" in2="effect_backgroundBlur_1" result="shape"/>
		</filter>
		<clipPath id="clip288_4644">
			<rect id="Frame" width="14.731107" height="27.000000" transform="translate(7.800049 1.199951)" fill="white" fill-opacity="0"/>
		</clipPath>
		<clipPath id="clip288_4643">
			<rect id="Icon" width="30.000000" height="30.000000" fill="white" fill-opacity="0"/>
		</clipPath>
	</defs>
	<g clip-path="url(#clip288_4643)">
		<rect id="Frame" width="14.731107" height="27.000000" transform="translate(7.800049 1.199951)" fill="#FFFFFF" fill-opacity="0"/>
		<g clip-path="url(#clip288_4644)">
			<g filter="url(#filter_288_4645_dd)">
				<path id="Vector" d="M7.7998 14.7C7.7998 11.2175 7.7915 7.72659 7.7998 4.24408C7.7998 2.81061 8.52515 1.76501 9.79834 1.35181C10.1018 1.25064 10.4307 1.20847 10.7512 1.20847C13.6941 1.20004 16.637 1.20004 19.5713 1.20847C21.283 1.21692 22.531 2.45645 22.531 4.15976C22.5396 11.1922 22.5396 18.2163 22.531 25.2487C22.531 26.9521 21.283 28.2 19.5798 28.2C16.6707 28.2085 13.7615 28.2085 10.8523 28.2C9.03101 28.2 7.81665 27.0027 7.80835 25.1644C7.7915 21.6735 7.7998 18.191 7.7998 14.7ZM15.1697 3.65381C14.5962 3.65381 14.0229 3.65381 13.4412 3.65381C12.9856 3.66226 12.7327 3.87305 12.7244 4.24408C12.7158 4.62354 12.9519 4.88492 13.3904 4.88492C14.571 4.90179 15.7432 4.90179 16.9236 4.88492C17.3452 4.8765 17.6318 4.58978 17.615 4.24408C17.5981 3.88992 17.3198 3.65381 16.8899 3.65381C16.3164 3.65381 15.7432 3.65381 15.1697 3.65381ZM15.1697 23.3094C14.4783 23.3094 13.9302 23.8575 13.9385 24.532C13.947 25.2066 14.512 25.7547 15.1865 25.7463C15.8442 25.7378 16.3755 25.1982 16.3755 24.532C16.3838 23.8322 15.8611 23.3094 15.1697 23.3094Z" fill="#E60000" fill-opacity="1.000000" fill-rule="nonzero"/>
			</g>
			<path id="Vector" d="M7.7998 14.7C7.7998 13.5395 7.79907 12.3781 7.7981 11.2163C7.79614 8.89178 7.79419 6.56607 7.7998 4.24408C7.7998 2.81061 8.52515 1.76501 9.79834 1.35181C10.1018 1.25064 10.4307 1.20847 10.7512 1.20847C13.6941 1.20004 16.637 1.20004 19.5713 1.20847C21.283 1.21692 22.531 2.45645 22.531 4.15976C22.5396 11.1922 22.5396 18.2163 22.531 25.2487C22.531 26.9521 21.283 28.2 19.5798 28.2Q17.4617 28.2062 15.3438 28.2064L15.323 28.2064Q13.0876 28.2065 10.8523 28.2C9.03101 28.2 7.81665 27.0027 7.80835 25.1644C7.79565 22.5465 7.79736 19.9333 7.79883 17.3177C7.79932 16.4455 7.7998 15.573 7.7998 14.7ZM8.79663 9.47275L8.7998 4.24469L8.7998 4.24408Q8.7998 3.48181 9.14404 2.98419Q9.19922 2.90442 9.26294 2.83228Q9.57935 2.47424 10.1069 2.30298Q10.3906 2.20847 10.7512 2.20847L19.5713 2.20847Q20.0083 2.21063 20.3823 2.3613Q20.6362 2.4635 20.8413 2.62689Q20.9177 2.68774 20.9873 2.75705Q21.0718 2.84125 21.1436 2.93515Q21.2891 3.12546 21.3821 3.35574Q21.531 3.72452 21.531 4.15976L21.5374 14.7055L21.531 25.2482Q21.531 25.6845 21.3818 26.0548Q21.2861 26.2924 21.1355 26.4874Q21.0669 26.5761 20.9871 26.656Q20.907 26.736 20.8181 26.8046Q20.6233 26.9552 20.3857 27.0508Q20.0154 27.2 19.5798 27.2L15.1343 27.2064L10.8538 27.2Q10.3601 27.2 9.96558 27.0497Q9.64624 26.9281 9.41016 26.7144Q9.38232 26.689 9.35547 26.6624Q9.3291 26.6361 9.30396 26.6086Q9.08789 26.3733 8.96387 26.0533Q8.81055 25.657 8.80835 25.1599L8.79785 19.9308L8.7998 14.7004L8.79663 9.47275ZM15.1694 2.65381L13.4412 2.65381L13.4226 2.65399Q12.8391 2.66479 12.4241 2.93472Q12.3484 2.98404 12.2783 3.04202Q12.1423 3.15433 12.0383 3.29105Q11.9338 3.42847 11.8621 3.59052Q11.8462 3.62622 11.832 3.6626Q11.7314 3.92386 11.7246 4.22134Q11.7178 4.52231 11.8052 4.79294Q11.813 4.81683 11.8213 4.84052Q11.8906 5.0343 12.0032 5.1983Q12.0823 5.31345 12.1826 5.41391Q12.2659 5.49704 12.3594 5.56589Q12.5396 5.69827 12.7583 5.77789Q13.0525 5.88492 13.3904 5.88492Q15.157 5.91028 16.9377 5.88483Q17.25 5.8786 17.5286 5.77896Q17.5518 5.77063 17.575 5.76163Q17.7812 5.68118 17.9548 5.55533Q18.0425 5.49176 18.1218 5.4166Q18.2637 5.28207 18.3665 5.12238Q18.4434 5.00281 18.4983 4.86914Q18.5596 4.72 18.5889 4.56485Q18.623 4.38419 18.6138 4.19534Q18.6033 3.97318 18.5369 3.76913Q18.5027 3.66373 18.4534 3.56314Q18.3848 3.4227 18.2915 3.30096Q18.1838 3.16003 18.043 3.04422Q17.9875 2.99854 17.9287 2.9581Q17.7278 2.82059 17.4858 2.74344Q17.2046 2.65381 16.8899 2.65381L15.1694 2.65381ZM16.8899 3.65381L13.4412 3.65381C12.9856 3.66226 12.7327 3.87305 12.7244 4.24408C12.7158 4.62354 12.9519 4.88492 13.3904 4.88492C14.571 4.90179 15.7432 4.90179 16.9236 4.88492C17.3452 4.8765 17.6318 4.58978 17.615 4.24408C17.5981 3.88992 17.3198 3.65381 16.8899 3.65381ZM12.9844 24.0665Q12.9355 24.3001 12.9387 24.5445Q12.9414 24.7703 12.9885 24.9865Q13.0356 25.2043 13.1279 25.4124Q13.2092 25.5959 13.3198 25.7597Q13.448 25.9493 13.6157 26.1123Q13.7808 26.2728 13.9707 26.3944Q14.1396 26.5026 14.3284 26.58Q14.5386 26.6664 14.7573 26.7079Q14.9741 26.749 15.199 26.7462Q15.4331 26.7432 15.6565 26.6926Q15.8577 26.6471 16.0503 26.563Q16.2356 26.4819 16.4006 26.3706Q16.5837 26.247 16.7417 26.086Q16.8933 25.9312 17.0103 25.7536Q17.1245 25.5805 17.2056 25.3857Q17.2842 25.1966 17.3264 24.9997Q17.3755 24.7711 17.3755 24.532Q17.3782 24.306 17.3372 24.0883Q17.2974 23.8784 17.217 23.6762Q17.1279 23.4522 16.9956 23.2578Q16.8855 23.096 16.7456 22.9546Q16.606 22.8137 16.446 22.7023Q16.2532 22.5681 16.0305 22.4768Q15.8965 22.4218 15.7576 22.3849Q15.4736 22.3094 15.1697 22.3094Q14.9114 22.3094 14.6658 22.3652Q14.479 22.4077 14.2996 22.4826Q14.0908 22.5696 13.9075 22.6938Q13.7358 22.8101 13.5862 22.9589Q13.4216 23.1227 13.2971 23.3128Q13.1863 23.4818 13.1072 23.6714Q13.0264 23.8649 12.9844 24.0665ZM15.1697 23.3094C14.4783 23.3094 13.9302 23.8575 13.9385 24.532C13.947 25.2066 14.512 25.7547 15.1865 25.7463C15.8442 25.7378 16.3755 25.1982 16.3755 24.532C16.3838 23.8322 15.8611 23.3094 15.1697 23.3094Z" fill="#E60000" fill-opacity="1.000000" fill-rule="evenodd"/>
		</g>
	</g>
</svg>
