<svg width="30.000000" height="30.000000" viewBox="0 0 30 30" fill="none" xmlns="http://www.w3.org/2000/svg" xmlns:xlink="http://www.w3.org/1999/xlink">
	<desc>
			Created with Pixso.
	</desc>
	<defs>
		<filter id="filter_288_4662_dd" x="2.091553" y="5.099976" width="25.966797" height="19.203033" filterUnits="userSpaceOnUse" color-interpolation-filters="sRGB">
			<feFlood flood-opacity="0" result="BackgroundImageFix"/>
			<feGaussianBlur in="BackgroundImage" stdDeviation="4"/>
			<feComposite in2="SourceAlpha" operator="in" result="effect_backgroundBlur_1"/>
			<feBlend mode="normal" in="SourceGraphic" in2="effect_backgroundBlur_1" result="shape"/>
		</filter>
		<clipPath id="clip288_4660">
			<rect id="Frame" width="25.949999" height="19.200001" transform="translate(2.100098 5.099976)" fill="white" fill-opacity="0"/>
		</clipPath>
		<clipPath id="clip288_4659">
			<rect id="Icon" width="30.000000" height="30.000000" fill="white" fill-opacity="0"/>
		</clipPath>
	</defs>
	<g clip-path="url(#clip288_4659)">
		<rect id="Frame" width="25.949999" height="19.200001" transform="translate(2.100098 5.099976)" fill="#FFFFFF" fill-opacity="0"/>
		<g clip-path="url(#clip288_4660)">
			<g filter="url(#filter_288_4662_dd)">
				<mask id="mask_288_4662" fill="white">
					<path id="Union" d="M2.1001 17.8693L2.1001 6.24713C2.1001 5.45166 2.44312 5.09998 3.25513 5.09998L26.9033 5.09998C27.7068 5.09998 28.0583 5.45166 28.0583 6.23874L28.0583 17.8609C19.4028 17.8693 10.7808 17.8693 2.1001 17.8693ZM13.2334 14.3357C14.6816 13.4984 16.0544 12.7029 17.4941 11.874C16.0461 11.0367 14.6565 10.2412 13.2334 9.41223L13.2334 14.3357ZM24.5173 23.7055C24.3081 23.0607 24.0317 22.4411 23.7556 21.7377L23.7563 21.7377C24.8862 21.7377 25.949 21.7377 26.9951 21.7294C27.5645 21.721 27.9998 21.4028 28.0249 20.892C28.0537 20.4059 28.0466 19.9157 28.0396 19.4216C28.0364 19.2008 28.0332 18.9792 28.0332 18.7568L2.09155 18.7568L2.09155 20.532C2.09155 21.3777 2.44312 21.7294 3.28027 21.7294L6.38574 21.7294C6.12646 22.3825 5.88354 22.9854 5.64087 23.5883C5.54028 23.8562 5.49854 24.1241 5.8335 24.2497C6.15991 24.3753 6.31885 24.1576 6.42773 23.8897C6.67896 23.2701 6.94678 22.6588 7.17285 22.0308C7.26489 21.788 7.39038 21.7294 7.63306 21.7294Q11.3979 21.7357 15.1628 21.7357Q18.844 21.7356 22.5251 21.7294C22.7847 21.7294 22.8933 21.8131 22.9771 22.0475C23.1948 22.6253 23.4292 23.1863 23.6636 23.7557C23.7053 23.8478 23.7388 23.9315 23.7808 24.0237C23.8896 24.2665 24.1155 24.3837 24.3164 24.2414C24.4504 24.1493 24.5676 23.8562 24.5173 23.7055ZM18.2393 20.4064L15.0581 20.4064C14.707 20.4064 14.3547 20.4055 14.0022 20.4045C13.2961 20.4026 12.5891 20.4008 11.8855 20.4064C11.6011 20.4064 11.3247 20.3729 11.3164 20.0128C11.3081 19.6444 11.5842 19.5691 11.894 19.5691L18.2476 19.5691C18.5488 19.5691 18.8335 19.636 18.8335 20.0045C18.8335 20.3896 18.5322 20.4064 18.2393 20.4064Z" clip-rule="evenodd" fill="" fill-opacity="1.000000" fill-rule="evenodd"/>
				</mask>
				<path id="Union" d="M2.1001 17.8693L2.1001 6.24713C2.1001 5.45166 2.44312 5.09998 3.25513 5.09998L26.9033 5.09998C27.7068 5.09998 28.0583 5.45166 28.0583 6.23874L28.0583 17.8609C19.4028 17.8693 10.7808 17.8693 2.1001 17.8693ZM13.2334 14.3357C14.6816 13.4984 16.0544 12.7029 17.4941 11.874C16.0461 11.0367 14.6565 10.2412 13.2334 9.41223L13.2334 14.3357ZM24.5173 23.7055C24.3081 23.0607 24.0317 22.4411 23.7556 21.7377L23.7563 21.7377C24.8862 21.7377 25.949 21.7377 26.9951 21.7294C27.5645 21.721 27.9998 21.4028 28.0249 20.892C28.0537 20.4059 28.0466 19.9157 28.0396 19.4216C28.0364 19.2008 28.0332 18.9792 28.0332 18.7568L2.09155 18.7568L2.09155 20.532C2.09155 21.3777 2.44312 21.7294 3.28027 21.7294L6.38574 21.7294C6.12646 22.3825 5.88354 22.9854 5.64087 23.5883C5.54028 23.8562 5.49854 24.1241 5.8335 24.2497C6.15991 24.3753 6.31885 24.1576 6.42773 23.8897C6.67896 23.2701 6.94678 22.6588 7.17285 22.0308C7.26489 21.788 7.39038 21.7294 7.63306 21.7294Q11.3979 21.7357 15.1628 21.7357Q18.844 21.7356 22.5251 21.7294C22.7847 21.7294 22.8933 21.8131 22.9771 22.0475C23.1948 22.6253 23.4292 23.1863 23.6636 23.7557C23.7053 23.8478 23.7388 23.9315 23.7808 24.0237C23.8896 24.2665 24.1155 24.3837 24.3164 24.2414C24.4504 24.1493 24.5676 23.8562 24.5173 23.7055ZM18.2393 20.4064L15.0581 20.4064C14.707 20.4064 14.3547 20.4055 14.0022 20.4045C13.2961 20.4026 12.5891 20.4008 11.8855 20.4064C11.6011 20.4064 11.3247 20.3729 11.3164 20.0128C11.3081 19.6444 11.5842 19.5691 11.894 19.5691L18.2476 19.5691C18.5488 19.5691 18.8335 19.636 18.8335 20.0045C18.8335 20.3896 18.5322 20.4064 18.2393 20.4064Z" clip-rule="evenodd" fill="#E60000" fill-opacity="1.000000" fill-rule="evenodd" mask="url(#mask_288_4662)"/>
			</g>
			<path id="Union" d="M2.09155 18.8693L2.09155 20.532C2.09155 21.3777 2.44312 21.7294 3.28027 21.7294L6.38574 21.7294C6.24883 22.0742 6.11648 22.4051 5.98632 22.7294C5.90341 22.9359 5.82139 23.1398 5.73964 23.3429C5.70669 23.4248 5.67377 23.5065 5.64087 23.5883C5.54028 23.8562 5.49854 24.1241 5.8335 24.2497C6.15991 24.3753 6.31885 24.1576 6.42773 23.8897C6.4582 23.8145 6.48892 23.7395 6.51977 23.6645C6.74331 23.1215 6.9742 22.5826 7.17285 22.0308C7.23942 21.8552 7.3235 21.7759 7.45675 21.7455C7.50773 21.7339 7.56591 21.7294 7.63306 21.7294Q11.3621 21.7357 15.0911 21.7357L15.1628 21.7357Q18.844 21.7356 22.5251 21.7294C22.5857 21.7294 22.6381 21.7339 22.6838 21.7439C22.834 21.7767 22.9129 21.8678 22.9771 22.0475C23.1712 22.5626 23.3785 23.0643 23.5872 23.5705C23.6127 23.6322 23.6381 23.6939 23.6636 23.7557C23.7053 23.8478 23.7388 23.9315 23.7808 24.0237C23.8896 24.2665 24.1155 24.3837 24.3164 24.2414C24.4504 24.1493 24.5676 23.8562 24.5173 23.7055C24.4886 23.617 24.4586 23.529 24.4276 23.4412C24.4243 23.4318 24.4209 23.4224 24.4176 23.4131C24.4104 23.393 24.4032 23.3729 24.3959 23.3528C24.3218 23.1481 24.242 22.9439 24.1588 22.7367C24.0298 22.4155 23.8927 22.0869 23.7556 21.7377L23.7563 21.7377L23.9289 21.7377C24.2346 21.7377 24.5355 21.7377 24.8326 21.7374C25.5715 21.7369 26.2871 21.735 26.9951 21.7294C27.5645 21.721 27.9998 21.4028 28.0249 20.892C28.0537 20.4067 28.0467 19.9173 28.0396 19.4239L28.0396 19.4216C28.0369 19.2352 28.0342 19.0484 28.0334 18.8609C28.0333 18.8262 28.0332 18.7915 28.0332 18.7568L2.09155 18.7568L2.09155 18.8693ZM3.09155 19.7568L3.09155 20.532Q3.09155 20.645 3.1024 20.7194Q3.1733 20.7294 3.28027 20.7294L7.86401 20.7294L7.86393 20.7296L10.5061 20.732L10.5061 20.732Q10.4747 20.6783 10.4484 20.6222Q10.3241 20.3565 10.3167 20.0361Q10.3133 19.8916 10.3338 19.7568L3.09155 19.7568ZM11.3774 19.7568C11.3365 19.8202 11.3139 19.9037 11.3164 20.0128C11.3247 20.3729 11.6011 20.4064 11.8855 20.4064C11.9685 20.4057 12.0515 20.4052 12.1346 20.4047C12.7559 20.4012 13.3794 20.4029 14.0022 20.4045C14.3547 20.4055 14.707 20.4064 15.0581 20.4064L18.2393 20.4064C18.5322 20.4064 18.8335 20.3896 18.8335 20.0045C18.8335 19.8991 18.8102 19.8184 18.7699 19.7568C18.6693 19.6032 18.4627 19.5691 18.2476 19.5691L11.894 19.5691C11.676 19.5691 11.4747 19.6064 11.3774 19.7568ZM19.8149 19.7568Q19.8335 19.8767 19.8335 20.0045Q19.8335 20.3413 19.7054 20.6192Q19.6788 20.6768 19.6468 20.7318L22.5242 20.7294Q22.6168 20.7294 22.7044 20.7377L23.7563 20.7377L26.9927 20.7294Q27.013 20.729 27.032 20.7267Q27.0476 20.3625 27.0431 19.7568L19.8149 19.7568ZM28.0583 17.7568L28.0583 6.23874C28.0583 5.45166 27.7068 5.09998 26.9033 5.09998L3.25513 5.09998C2.44312 5.09998 2.1001 5.45166 2.1001 6.24713L2.1001 17.8693L3.1001 17.8693C11.4431 17.8693 19.7353 17.8689 28.0583 17.8609L28.0583 17.7568ZM27.0583 16.8616L27.0583 6.23874Q27.0583 6.16198 27.0523 6.10755Q26.9912 6.09998 26.9033 6.09998L3.25513 6.09998Q3.16773 6.09998 3.10657 6.10719Q3.1001 6.16514 3.1001 6.24713L3.1001 16.8691L18.6235 16.8671L27.0583 16.8616ZM12.2334 7.67703L12.2334 16.0693L13.7341 15.2014L16.0178 13.8806L19.4954 11.8737L15.3862 9.50397L12.2334 7.67703ZM14.2334 13.7574C13.903 13.9485 13.5702 14.141 13.2334 14.3357L13.2334 9.41223C13.5682 9.60724 13.9011 9.8004 14.2334 9.99269C14.9856 10.428 15.7345 10.8589 16.4939 11.2966C16.825 11.4875 17.158 11.6796 17.4941 11.874C17.1574 12.0679 16.8244 12.2599 16.4932 12.4511C15.7376 12.8872 14.9915 13.3188 14.2334 13.7574Z" clip-rule="evenodd" fill="#E60000" fill-opacity="1.000000" fill-rule="evenodd"/>
		</g>
	</g>
</svg>
