<svg width="30.000000" height="30.000000" viewBox="0 0 30 30" fill="none" xmlns="http://www.w3.org/2000/svg" xmlns:xlink="http://www.w3.org/1999/xlink">
	<desc>
			Created with Pixso.
	</desc>
	<defs>
		<filter id="filter_288_4693_dd" x="2.552734" y="5.250000" width="25.205078" height="18.898026" filterUnits="userSpaceOnUse" color-interpolation-filters="sRGB">
			<feFlood flood-opacity="0" result="BackgroundImageFix"/>
			<feGaussianBlur in="BackgroundImage" stdDeviation="4"/>
			<feComposite in2="SourceAlpha" operator="in" result="effect_backgroundBlur_1"/>
			<feBlend mode="normal" in="SourceGraphic" in2="effect_backgroundBlur_1" result="shape"/>
		</filter>
		<clipPath id="clip288_4692">
			<rect id="Frame" width="25.199999" height="18.900002" transform="translate(2.550049 5.250000)" fill="white" fill-opacity="0"/>
		</clipPath>
		<clipPath id="clip288_4691">
			<rect id="Icon" width="30.000000" height="30.000000" fill="white" fill-opacity="0"/>
		</clipPath>
	</defs>
	<g clip-path="url(#clip288_4691)">
		<rect id="Frame" width="25.199999" height="18.900002" transform="translate(2.550049 5.250000)" fill="#FFFFFF" fill-opacity="0"/>
		<g clip-path="url(#clip288_4692)">
			<g filter="url(#filter_288_4693_dd)">
				<mask id="mask_288_4693" fill="white">
					<path id="Union" d="M14.4836 9.44563C14.7024 9.44475 14.9207 9.44388 15.1382 9.44388C15.3633 9.44388 15.5894 9.44475 15.8159 9.44562C16.2708 9.44737 16.7278 9.44913 17.1851 9.44388C17.8936 9.42815 18.2952 9.02686 18.303 8.31082Q18.3088 7.83795 18.3088 7.36508Q18.3088 6.89374 18.303 6.42239C18.303 5.6749 17.8857 5.25 17.1379 5.25L13.1621 5.25C12.4221 5.25787 12.0127 5.6749 12.0049 6.43027L12.0049 8.27936C12.0049 9.03473 12.4065 9.436 13.1702 9.44388C13.606 9.44913 14.0454 9.44737 14.4836 9.44563ZM6.99805 11.5526L23.3335 11.5526C24.782 11.5526 25.6323 12.3945 25.6479 13.8345C25.656 14.5741 25.782 14.6921 26.522 14.7C27.3486 14.7 27.7578 15.1013 27.7578 15.9196L27.7578 19.7751C27.7578 20.5935 27.3486 20.9948 26.522 20.9948C25.782 20.9948 25.656 21.1206 25.6479 21.8603C25.6401 23.3002 24.782 24.15 23.3335 24.1421C22.1526 24.1343 20.9717 24.1343 19.7988 24.0792C19.1138 24.0477 18.5076 23.7487 17.9644 23.3474C17.4211 22.954 16.8938 22.5448 16.3584 22.1514C15.5317 21.5298 14.8076 21.5298 13.981 22.1435C13.4536 22.537 12.9338 22.9304 12.4065 23.3238C11.6665 23.8667 10.832 24.1421 9.91089 24.1421Q9.14355 24.148 8.37598 24.148L8.36768 24.148Q7.604 24.148 6.84058 24.1421C5.56519 24.1343 4.69141 23.2687 4.66772 21.994L4.66772 21.64C4.64404 21.1836 4.46313 21.0105 4.00635 20.9948L3.61279 20.9948C2.99878 20.9633 2.56567 20.5541 2.56567 19.9482C2.55005 18.5477 2.55005 17.1392 2.55786 15.7386C2.56567 15.1485 2.99097 14.7393 3.57349 14.7C3.63623 14.6948 3.69531 14.6965 3.75562 14.6982L3.75562 14.6982C3.78638 14.6991 3.81714 14.7 3.84912 14.7C4.50244 14.7 4.6521 14.5505 4.65991 13.8895C4.67554 12.3788 5.5022 11.5526 6.99805 11.5526Z" clip-rule="evenodd" fill="" fill-opacity="1.000000" fill-rule="evenodd"/>
				</mask>
				<path id="Union" d="M14.4836 9.44563C14.7024 9.44475 14.9207 9.44388 15.1382 9.44388C15.3633 9.44388 15.5894 9.44475 15.8159 9.44562C16.2708 9.44737 16.7278 9.44913 17.1851 9.44388C17.8936 9.42815 18.2952 9.02686 18.303 8.31082Q18.3088 7.83795 18.3088 7.36508Q18.3088 6.89374 18.303 6.42239C18.303 5.6749 17.8857 5.25 17.1379 5.25L13.1621 5.25C12.4221 5.25787 12.0127 5.6749 12.0049 6.43027L12.0049 8.27936C12.0049 9.03473 12.4065 9.436 13.1702 9.44388C13.606 9.44913 14.0454 9.44737 14.4836 9.44563ZM6.99805 11.5526L23.3335 11.5526C24.782 11.5526 25.6323 12.3945 25.6479 13.8345C25.656 14.5741 25.782 14.6921 26.522 14.7C27.3486 14.7 27.7578 15.1013 27.7578 15.9196L27.7578 19.7751C27.7578 20.5935 27.3486 20.9948 26.522 20.9948C25.782 20.9948 25.656 21.1206 25.6479 21.8603C25.6401 23.3002 24.782 24.15 23.3335 24.1421C22.1526 24.1343 20.9717 24.1343 19.7988 24.0792C19.1138 24.0477 18.5076 23.7487 17.9644 23.3474C17.4211 22.954 16.8938 22.5448 16.3584 22.1514C15.5317 21.5298 14.8076 21.5298 13.981 22.1435C13.4536 22.537 12.9338 22.9304 12.4065 23.3238C11.6665 23.8667 10.832 24.1421 9.91089 24.1421Q9.14355 24.148 8.37598 24.148L8.36768 24.148Q7.604 24.148 6.84058 24.1421C5.56519 24.1343 4.69141 23.2687 4.66772 21.994L4.66772 21.64C4.64404 21.1836 4.46313 21.0105 4.00635 20.9948L3.61279 20.9948C2.99878 20.9633 2.56567 20.5541 2.56567 19.9482C2.55005 18.5477 2.55005 17.1392 2.55786 15.7386C2.56567 15.1485 2.99097 14.7393 3.57349 14.7C3.63623 14.6948 3.69531 14.6965 3.75562 14.6982L3.75562 14.6982C3.78638 14.6991 3.81714 14.7 3.84912 14.7C4.50244 14.7 4.6521 14.5505 4.65991 13.8895C4.67554 12.3788 5.5022 11.5526 6.99805 11.5526Z" clip-rule="evenodd" fill="#E60000" fill-opacity="1.000000" fill-rule="evenodd" mask="url(#mask_288_4693)"/>
			</g>
			<path id="Union" d="M15.1382 9.44388C14.9207 9.44388 14.7024 9.44475 14.4836 9.44563L14.4817 9.44564C14.0441 9.44738 13.6053 9.44912 13.1702 9.44388C12.4065 9.436 12.0049 9.03473 12.0049 8.27936L12.0049 6.43027C12.0127 5.6749 12.4221 5.25787 13.1621 5.25L17.1379 5.25C17.8857 5.25 18.303 5.6749 18.303 6.42239Q18.3088 6.89374 18.3088 7.36508Q18.3088 7.83795 18.303 8.31082C18.2952 9.02686 17.8936 9.42815 17.1851 9.44388C16.7278 9.44913 16.2708 9.44737 15.8159 9.44562C15.5894 9.44475 15.3633 9.44388 15.1382 9.44388ZM15.1355 8.44388L14.481 8.44563L14.4795 8.44563Q13.6101 8.44911 13.1804 8.44394Q13.079 8.44288 13.0178 8.42733Q13.0049 8.3714 13.0049 8.27936L13.0049 6.44069Q13.006 6.3299 13.0262 6.2666Q13.0786 6.25094 13.1621 6.25L17.1379 6.25Q17.2318 6.25 17.286 6.26564Q17.303 6.32428 17.303 6.43491Q17.3088 6.90001 17.3088 7.36511Q17.3088 7.83173 17.303 8.29984Q17.3022 8.38082 17.2897 8.42974Q17.2436 8.44235 17.1736 8.44394Q16.7241 8.44911 15.8198 8.44563L15.8184 8.44563L15.1355 8.44388ZM4.66772 21.64L4.66772 21.994C4.69141 23.2687 5.56519 24.1343 6.84058 24.1421Q7.604 24.148 8.36768 24.148L8.37598 24.148Q9.14355 24.148 9.91089 24.1421C10.832 24.1421 11.6665 23.8667 12.4065 23.3238C12.9338 22.9304 13.4536 22.537 13.981 22.1435C14.8076 21.5298 15.5317 21.5298 16.3584 22.1514C16.8938 22.5448 17.4211 22.954 17.9644 23.3474C18.5076 23.7487 19.1138 24.0477 19.7988 24.0792C20.9717 24.1343 22.1526 24.1343 23.3335 24.1421C24.782 24.15 25.6401 23.3002 25.6479 21.8603C25.656 21.1206 25.782 20.9948 26.522 20.9948C27.3486 20.9948 27.7578 20.5935 27.7578 19.7751L27.7578 15.9196C27.7578 15.1013 27.3486 14.7 26.522 14.7C25.782 14.6921 25.656 14.5741 25.6479 13.8345C25.6323 12.3945 24.782 11.5526 23.3335 11.5526L6.99805 11.5526C5.5022 11.5526 4.67554 12.3788 4.65991 13.8895C4.6521 14.5505 4.50244 14.7 3.84912 14.7C3.81714 14.7 3.78638 14.6991 3.75562 14.6982C3.69531 14.6965 3.63623 14.6948 3.57349 14.7C2.99097 14.7393 2.56567 15.1485 2.55786 15.7386C2.55005 17.1392 2.55005 18.5477 2.56567 19.9482C2.56567 20.5541 2.99878 20.9633 3.61279 20.9948L4.00635 20.9948C4.46313 21.0105 4.64404 21.1836 4.66772 21.64ZM3.64544 19.9948L4.02368 19.9948L4.04102 19.9953Q4.67256 20.0171 5.07712 20.3312Q5.13939 20.3796 5.19629 20.4349Q5.26195 20.4986 5.31851 20.5697Q5.6342 20.9662 5.6665 21.5883L5.66772 21.6141L5.66748 21.9755Q5.67646 22.4569 5.91542 22.752Q5.9494 22.794 5.98804 22.8322Q6.02903 22.8728 6.07417 22.908Q6.37018 23.1392 6.84448 23.1421L8.36768 23.148L8.37207 23.148L9.91089 23.1421Q10.4559 23.1421 10.9446 22.9764Q11.4 22.822 11.8066 22.5237L12.594 21.9334L13.3848 21.3407Q14.2448 20.7021 15.1173 20.6847Q15.1448 20.6842 15.1724 20.6842Q15.217 20.6843 15.2616 20.6861Q16.1176 20.7192 16.9507 21.3456Q17.1907 21.5221 17.6636 21.878Q18.2542 22.3225 18.5586 22.5431Q19.2488 23.0528 19.8457 23.0803Q20.5146 23.1117 21.3584 23.1252Q21.8689 23.1334 22.897 23.1394Q23.1917 23.1412 23.3389 23.1421Q24.011 23.1458 24.3286 22.8324Q24.6445 22.5206 24.6482 21.8496Q24.6523 21.4578 24.7056 21.2062Q24.7874 20.8182 25.0104 20.5455Q25.0554 20.4904 25.1062 20.4401Q25.1581 20.3887 25.2147 20.3433Q25.4892 20.1237 25.877 20.0457Q26.1296 19.9948 26.522 19.9948Q26.6598 19.9948 26.7389 19.973Q26.7578 19.9007 26.7578 19.7751L26.7578 15.9196Q26.7578 15.7941 26.7389 15.7218Q26.6589 15.7 26.5112 15.6999Q26.1213 15.6958 25.8738 15.6452Q25.4803 15.5647 25.2044 15.3398Q25.1548 15.2995 25.1091 15.2545Q25.0558 15.202 25.0088 15.1444Q24.7876 14.8734 24.7058 14.4885Q24.6523 14.2372 24.6482 13.8454Q24.6409 13.1764 24.3257 12.8653Q24.0088 12.5526 23.3335 12.5526L6.99805 12.5526Q6.29028 12.5526 5.98096 12.8618Q5.66748 13.1752 5.65991 13.9015Q5.65552 14.2697 5.59473 14.5255Q5.51056 14.8814 5.30365 15.1383Q5.25667 15.1967 5.20337 15.2499Q5.14417 15.3091 5.07879 15.3604Q4.82357 15.5607 4.47412 15.641Q4.2168 15.7 3.84912 15.7Q3.80332 15.7 3.72681 15.6978L3.72485 15.6978Q3.66298 15.696 3.64087 15.6977Q3.59692 15.7007 3.56958 15.7127Q3.56429 15.7149 3.5616 15.7164Q3.55807 15.7271 3.55786 15.741L3.55298 17.8417L3.56567 19.9482Q3.56567 19.9661 3.56732 19.9769Q3.56897 19.9777 3.5708 19.9784Q3.6005 19.9907 3.64544 19.9948Z" clip-rule="evenodd" fill="#E60000" fill-opacity="1.000000" fill-rule="evenodd"/>
		</g>
	</g>
</svg>
